<svg version="1.1" id="Layer_1" xmlns="http://www.w3.org/2000/svg" xmlns:xlink="http://www.w3.org/1999/xlink" x="0px" y="0px"
	 width="100%" viewBox="0 0 256 256" enable-background="new 0 0 256 256" xml:space="preserve">
<path fill="#141716" opacity="1.000000" stroke="none" 
	d="
M1.000000,152.000000 
	C1.000000,137.312439 1.000000,122.624878 1.372290,107.382690 
	C2.127091,106.327896 2.766504,105.869293 2.855117,105.321571 
	C6.540723,82.540405 16.623980,62.611965 31.418297,45.326656 
	C50.244869,23.330162 74.281021,9.417197 102.599022,3.014911 
	C103.822014,2.738411 104.870316,1.689236 106.000000,0.999999 
	C120.687561,1.000000 135.375122,1.000000 150.617386,1.372367 
	C151.672333,2.127154 152.131042,2.766426 152.678802,2.855002 
	C175.459625,6.538781 195.386047,16.624546 212.671051,31.416487 
	C234.669724,50.242241 248.582443,74.279930 254.985107,102.598862 
	C255.261627,103.821907 256.310760,104.870270 257.000000,106.000000 
	C257.000000,120.687561 257.000000,135.375122 256.627655,150.617432 
	C255.872894,151.672424 255.233643,152.131165 255.145081,152.678955 
	C251.461990,175.460052 241.375305,195.386063 226.583588,212.671051 
	C207.757980,234.669830 183.720200,248.582520 155.401230,254.985123 
	C154.178162,255.261627 153.129761,256.310760 152.000000,257.000000 
	C137.312439,257.000000 122.624878,257.000000 107.382629,256.627625 
	C106.163353,255.849304 105.540901,255.194016 104.828087,255.073563 
	C82.092735,251.232147 62.193363,241.133377 44.967602,226.250092 
	C23.054502,207.316910 9.160816,183.291885 2.971895,154.898590 
	C2.741027,153.839432 1.676195,152.962082 1.000000,152.000000 
M98.937225,75.498299 
	C98.937225,71.437431 98.937225,67.376564 98.937225,63.375923 
	C90.576019,63.375923 82.997292,63.375923 75.285522,63.375923 
	C75.285522,71.426537 75.285522,79.254402 75.285522,86.787552 
	C83.358612,86.787552 91.064232,86.787552 98.937225,86.787552 
	C98.937225,83.097008 98.937225,79.792435 98.937225,75.498299 
M126.920891,95.670197 
	C126.920891,102.085091 126.920891,108.499985 126.920891,114.877823 
	C135.193802,114.877823 142.899765,114.877823 150.628021,114.877823 
	C150.628021,106.876984 150.628021,99.177719 150.628021,91.159828 
	C143.380051,91.159828 136.431976,91.030632 129.501068,91.317085 
	C128.595840,91.354507 127.778870,93.527420 126.920891,95.670197 
M85.506943,143.176178 
	C89.907745,143.176178 94.308548,143.176178 98.579163,143.176178 
	C98.579163,134.771164 98.579163,127.075905 98.579163,119.512711 
	C90.514526,119.512711 82.812248,119.512711 75.254440,119.512711 
	C75.254440,127.591148 75.254440,135.310013 75.254440,143.176178 
	C78.563896,143.176178 81.540573,143.176178 85.506943,143.176178 
M178.920898,136.454254 
	C178.920898,138.564941 178.920898,140.675644 178.920898,142.944000 
	C187.080383,142.944000 194.784744,142.944000 202.694244,142.944000 
	C202.694244,135.010284 202.694244,127.309273 202.694244,119.406631 
	C194.750610,119.406631 187.050629,119.406631 178.920898,119.406631 
	C178.920898,124.919914 178.920898,130.190994 178.920898,136.454254 
M126.920876,160.495880 
	C126.920876,163.935165 126.920876,167.374466 126.920876,170.935150 
	C135.096130,170.935150 142.800369,170.935150 150.685913,170.935150 
	C150.685913,162.992874 150.685913,155.292557 150.685913,147.413940 
	C142.733353,147.413940 135.033173,147.413940 126.920876,147.413940 
	C126.920876,151.608261 126.920876,155.555389 126.920876,160.495880 
M74.920876,192.454254 
	C74.920876,194.564941 74.920876,196.675644 74.920876,198.944000 
	C83.080376,198.944000 90.784729,198.944000 98.694244,198.944000 
	C98.694244,191.010284 98.694244,183.309280 98.694244,175.406631 
	C90.750618,175.406631 83.050629,175.406631 74.920876,175.406631 
	C74.920876,180.919907 74.920876,186.190994 74.920876,192.454254 
z"/>
<path fill="#000000" opacity="1.000000" stroke="none" 
	d="
M105.531342,0.999999 
	C104.870316,1.689236 103.822014,2.738411 102.599022,3.014911 
	C74.281021,9.417197 50.244869,23.330162 31.418297,45.326656 
	C16.623980,62.611965 6.540723,82.540405 2.855117,105.321571 
	C2.766504,105.869293 2.127091,106.327896 1.372290,106.914032 
	C1.000000,71.740067 1.000000,36.480133 1.000000,1.000000 
	C35.687252,1.000000 70.374969,1.000000 105.531342,0.999999 
z"/>
<path fill="#000000" opacity="1.000000" stroke="none" 
	d="
M257.000000,105.531342 
	C256.310760,104.870270 255.261627,103.821907 254.985107,102.598862 
	C248.582443,74.279930 234.669724,50.242241 212.671051,31.416487 
	C195.386047,16.624546 175.459625,6.538781 152.678802,2.855002 
	C152.131042,2.766426 151.672333,2.127154 151.086044,1.372367 
	C186.259933,1.000000 221.519852,1.000000 257.000000,1.000000 
	C257.000000,35.687252 257.000000,70.374969 257.000000,105.531342 
z"/>
<path fill="#000000" opacity="1.000000" stroke="none" 
	d="
M152.468658,257.000000 
	C153.129761,256.310760 154.178162,255.261627 155.401230,254.985123 
	C183.720200,248.582520 207.757980,234.669830 226.583588,212.671051 
	C241.375305,195.386063 251.461990,175.460052 255.145081,152.678955 
	C255.233643,152.131165 255.872894,151.672424 256.627655,151.086090 
	C257.000000,186.259933 257.000000,221.519852 257.000000,257.000000 
	C222.312744,257.000000 187.625031,257.000000 152.468658,257.000000 
z"/>
<path fill="#000000" opacity="1.000000" stroke="none" 
	d="
M1.000000,152.468658 
	C1.676195,152.962082 2.741027,153.839432 2.971895,154.898590 
	C9.160816,183.291885 23.054502,207.316910 44.967602,226.250092 
	C62.193363,241.133377 82.092735,251.232147 104.828087,255.073563 
	C105.540901,255.194016 106.163353,255.849304 106.913971,256.627625 
	C71.740067,257.000000 36.480141,257.000000 1.000000,257.000000 
	C1.000000,222.312744 1.000000,187.625031 1.000000,152.468658 
z"/>
<path fill="#FBFBFB" opacity="1.000000" stroke="none" 
	d="
M98.937225,75.993080 
	C98.937225,79.792435 98.937225,83.097008 98.937225,86.787552 
	C91.064232,86.787552 83.358612,86.787552 75.285522,86.787552 
	C75.285522,79.254402 75.285522,71.426537 75.285522,63.375923 
	C82.997292,63.375923 90.576019,63.375923 98.937225,63.375923 
	C98.937225,67.376564 98.937225,71.437431 98.937225,75.993080 
z"/>
<path fill="#FBFBFB" opacity="1.000000" stroke="none" 
	d="
M126.920952,95.190704 
	C127.778870,93.527420 128.595840,91.354507 129.501068,91.317085 
	C136.431976,91.030632 143.380051,91.159828 150.628021,91.159828 
	C150.628021,99.177719 150.628021,106.876984 150.628021,114.877823 
	C142.899765,114.877823 135.193802,114.877823 126.920891,114.877823 
	C126.920891,108.499985 126.920891,102.085091 126.920952,95.190704 
z"/>
<path fill="#FBFBFB" opacity="1.000000" stroke="none" 
	d="
M85.012093,143.176178 
	C81.540573,143.176178 78.563896,143.176178 75.254440,143.176178 
	C75.254440,135.310013 75.254440,127.591148 75.254440,119.512711 
	C82.812248,119.512711 90.514526,119.512711 98.579163,119.512711 
	C98.579163,127.075905 98.579163,134.771164 98.579163,143.176178 
	C94.308548,143.176178 89.907745,143.176178 85.012093,143.176178 
z"/>
<path fill="#FBFBFB" opacity="1.000000" stroke="none" 
	d="
M178.920898,135.958160 
	C178.920898,130.190994 178.920898,124.919914 178.920898,119.406631 
	C187.050629,119.406631 194.750610,119.406631 202.694244,119.406631 
	C202.694244,127.309273 202.694244,135.010284 202.694244,142.944000 
	C194.784744,142.944000 187.080383,142.944000 178.920898,142.944000 
	C178.920898,140.675644 178.920898,138.564941 178.920898,135.958160 
z"/>
<path fill="#FBFBFB" opacity="1.000000" stroke="none" 
	d="
M126.920876,159.999207 
	C126.920876,155.555389 126.920876,151.608261 126.920876,147.413940 
	C135.033173,147.413940 142.733353,147.413940 150.685913,147.413940 
	C150.685913,155.292557 150.685913,162.992874 150.685913,170.935150 
	C142.800369,170.935150 135.096130,170.935150 126.920876,170.935150 
	C126.920876,167.374466 126.920876,163.935165 126.920876,159.999207 
z"/>
<path fill="#FBFBFB" opacity="1.000000" stroke="none" 
	d="
M74.920876,191.958160 
	C74.920876,186.190994 74.920876,180.919907 74.920876,175.406631 
	C83.050629,175.406631 90.750618,175.406631 98.694244,175.406631 
	C98.694244,183.309280 98.694244,191.010284 98.694244,198.944000 
	C90.784729,198.944000 83.080376,198.944000 74.920876,198.944000 
	C74.920876,196.675644 74.920876,194.564941 74.920876,191.958160 
z"/>
</svg>