<svg xmlns="http://www.w3.org/2000/svg" xmlns:xlink="http://www.w3.org/1999/xlink" width="1080" zoomAndPan="magnify" viewBox="0 0 810 809.999993" height="1080" preserveAspectRatio="xMidYMid meet" version="1.0"><defs><clipPath id="de07864a3f"><path d="M 243 297.066406 L 567 297.066406 L 567 513.066406 L 243 513.066406 Z M 243 297.066406 " clip-rule="nonzero"/></clipPath></defs><rect x="-81" width="972" fill="#ffffff" y="-80.999999" height="971.999992" fill-opacity="1"/><rect x="-81" width="972" fill="#ffffff" y="-80.999999" height="971.999992" fill-opacity="1"/><g clip-path="url(#de07864a3f)"><path fill="#000000" d="M 494.941406 378.066406 L 494.941406 315.066406 C 494.941406 305.167969 486.847656 297.066406 476.953125 297.066406 L 261.09375 297.066406 C 251.199219 297.066406 243.105469 305.167969 243.105469 315.066406 L 243.105469 495.066406 C 243.105469 504.96875 251.199219 513.066406 261.09375 513.066406 L 476.953125 513.066406 C 486.847656 513.066406 494.941406 504.96875 494.941406 495.066406 L 494.941406 432.066406 L 566.894531 504.066406 L 566.894531 306.066406 Z M 494.941406 378.066406 " fill-opacity="1" fill-rule="nonzero"/></g></svg>